HIERARCHY
ROOT Hips
{
	OFFSET -3.958830 18.904000 13.208200
	CHANNELS 6 Xposition Yposition Zposition Zrotation Yrotation Xrotation 
	JOINT LHipJoint
	{
		OFFSET 0.000000 0.000000 0.000000
		CHANNELS 3 Zrotation Yrotation Xrotation
		JOINT LeftUpLeg
		{
			OFFSET 1.800000 -1.400000 0.085000
			CHANNELS 3 Zrotation Yrotation Xrotation
			JOINT LeftLeg
			{
				OFFSET 2.215000 -6.000000 0.000000
				CHANNELS 3 Zrotation Yrotation Xrotation
				JOINT LeftFoot
				{
					OFFSET 2.500000 -6.900000 0.000000
					CHANNELS 3 Zrotation Yrotation Xrotation
					JOINT LeftToeBase
					{
						OFFSET 0.200000 -0.500000 1.950000
						CHANNELS 3 Zrotation Yrotation Xrotation
						End Site
						{
							OFFSET 0.000000 0.000000 0.000000
						}
					}
				}
			}
		}
	}
	JOINT RHipJoint
	{
		OFFSET 0.000000 0.000000 0.000000
		CHANNELS 3 Zrotation Yrotation Xrotation
		JOINT RightUpLeg
		{
			OFFSET -1.800000 -1.400000 0.085000
			CHANNELS 3 Zrotation Yrotation Xrotation
			JOINT RightLeg
			{
				OFFSET -2.215000 -6.000000 0.000000
				CHANNELS 3 Zrotation Yrotation Xrotation
				JOINT RightFoot
				{
					OFFSET -2.500000 -6.900000 0.000000
					CHANNELS 3 Zrotation Yrotation Xrotation
					JOINT RightToeBase
					{
						OFFSET -0.200000 -0.500000 1.950000
						CHANNELS 3 Zrotation Yrotation Xrotation
						End Site
						{
							OFFSET 0.000000 0.000000 0.000000
						}
					}
				}
			}
		}
	}
	JOINT LowerBack
	{
		OFFSET 0.000000 0.000000 0.000000
		CHANNELS 3 Zrotation Yrotation Xrotation
		JOINT Spine
		{
			OFFSET -0.087000 1.940000 -0.288900
			CHANNELS 3 Zrotation Yrotation Xrotation
			JOINT Spine1
			{
				OFFSET 0.000000 1.950000 0.060000
				CHANNELS 3 Zrotation Yrotation Xrotation
				JOINT Neck
				{
					OFFSET 0.000000 0.000000 0.000000
					CHANNELS 3 Zrotation Yrotation Xrotation
					JOINT Neck1
					{
						OFFSET 0.000000 1.600000 0.340000
						CHANNELS 3 Zrotation Yrotation Xrotation
						JOINT Head
						{
							OFFSET 0.000000 1.667000 -0.240000
							CHANNELS 3 Zrotation Yrotation Xrotation
							End Site
							{
								OFFSET 0.000000 0.000000 0.000000
							}
						}
					}
				}
				JOINT LeftShoulder
				{
					OFFSET 0.000000 0.000000 0.000000
					CHANNELS 3 Zrotation Yrotation Xrotation
					JOINT LeftArm
					{
						OFFSET 2.700000 1.550000 -0.730000
						CHANNELS 3 Zrotation Yrotation Xrotation
						JOINT LeftForeArm
						{
							OFFSET 5.450000 0.000000 0.000000
							CHANNELS 3 Zrotation Yrotation Xrotation
							JOINT LeftHand
							{
								OFFSET 3.450000 0.000000 0.000000
								CHANNELS 3 Zrotation Yrotation Xrotation
								JOINT LeftHandIndex1
								{
									OFFSET 0.750000 0.000000 0.000000
									CHANNELS 3 Zrotation Yrotation Xrotation
									End Site
									{
										OFFSET 0.000000 0.000000 0.000000
									}
								}
							}
						}
					}
				}
				JOINT RightShoulder
				{
					OFFSET 0.000000 0.000000 0.000000
					CHANNELS 3 Zrotation Yrotation Xrotation
					JOINT RightArm
					{
						OFFSET -2.700000 1.550000 -0.730000
						CHANNELS 3 Zrotation Yrotation Xrotation
						JOINT RightForeArm
						{
							OFFSET -5.450000 0.000000 0.000000
							CHANNELS 3 Zrotation Yrotation Xrotation
							JOINT RightHand
							{
								OFFSET -3.450000 0.000000 0.000000
								CHANNELS 3 Zrotation Yrotation Xrotation
								JOINT RightHandIndex1
								{
									OFFSET -0.750000 0.000000 0.000000
									CHANNELS 3 Zrotation Yrotation Xrotation
									End Site
									{
										OFFSET 0.000000 0.000000 0.000000
									}
								}
							}
						}
					}
				}
			}
		}
	}
}
MOTION
Frames: 12
Frame Time: 0.016667
0.812590 16.463190 -1.073240 -1.074884 0.271677 -0.078908 -15.049509 12.696331 2.953796 -0.878532 -1.098421 -9.158702 -5.482559 3.771300 4.300223 -1.257596 4.156275 3.488154 0.588660 0.660610 0.175970 18.491014 -11.004478 2.808252 -0.423015 1.455094 -12.443124 5.585594 -3.636574 10.301021 0.109469 -3.905017 3.004018 1.046500 1.111570 0.234350 -4.083959 -0.458379 -7.075270 11.125080 -3.379155 9.959491 -6.669632 -0.386074 11.055623 1.530819 -1.431613 -6.938687 -1.582044 4.444555 16.966492 -5.372000 0.876710 -4.728110 5.026658 -12.001687 -1.018305 31.583030 -20.406859 -12.286440 95.734499 24.248025 18.746887 -5.060151 3.356684 -0.271640 0.970820 -0.624510 0.380900 -7.512033 13.821494 3.254617 -27.541642 15.271537 -14.184190 -105.396238 -22.289901 21.052271 2.019116 -2.618766 -0.562550 0.751920 0.080760 -0.001280 
0.823860 16.451730 -1.120230 -1.124395 0.822344 0.135056 -15.046695 12.620792 2.988361 -0.703090 -1.041520 -8.947071 -6.110439 3.721537 2.952894 -1.236622 4.209230 3.479640 0.598640 0.683440 0.163780 18.504489 -10.965148 2.825654 -0.381847 1.495768 -12.564139 5.738383 -3.528342 9.397433 0.121015 -3.922046 2.993522 1.069080 1.139900 0.266660 -4.114601 -0.395972 -7.122123 11.517958 -3.752491 10.276163 -6.939963 -0.631190 11.049917 1.502712 -1.413261 -7.088520 -1.490731 4.735601 16.286088 -5.646590 1.117920 -4.113560 4.367469 -12.502148 -0.917372 32.611001 -18.871922 -12.153744 93.315641 23.741566 17.416238 -5.108770 3.408254 -0.324810 1.017340 -0.648440 0.393200 -6.763381 14.303782 3.466012 -27.722420 14.078899 -14.055372 -105.880414 -21.353756 19.972657 1.994676 -2.681523 -0.544740 0.725560 0.077130 0.013200 
0.836300 16.441040 -1.167780 -1.070000 1.242615 0.129726 -15.050769 12.601746 2.996029 -0.731692 -1.054907 -9.059692 -6.301894 3.723016 2.761883 -1.207725 4.207153 3.476396 0.611880 0.709490 0.163570 18.503190 -10.946807 2.834429 -0.464306 1.486046 -12.614938 5.749851 -3.443272 8.826921 0.133743 -3.936614 2.984332 1.083880 1.141800 0.291940 -4.112284 -0.395668 -7.139602 11.555558 -3.734818 10.698972 -6.735602 -0.724438 11.232026 1.427142 -1.330360 -7.189507 -1.306106 4.685221 15.819061 -5.969220 1.207590 -3.453020 3.787079 -12.901514 -0.857287 33.489749 -18.288990 -12.123162 89.765205 22.743565 15.263153 -5.140310 3.453530 -0.384020 1.047960 -0.663970 0.396550 -6.006292 14.652683 3.618429 -28.053335 12.524260 -13.694479 -103.272437 -19.467612 16.625247 1.979575 -2.732442 -0.511210 0.684540 0.064820 0.025310 
0.842220 16.439660 -1.207200 -0.841033 1.028414 0.289752 -15.053081 12.601740 2.978817 -1.074174 -1.165863 -9.662953 -6.010810 3.712100 3.432708 -1.239454 4.154514 3.489776 0.611990 0.710910 0.152770 18.500256 -10.947398 2.839494 -0.736464 1.476282 -12.874565 5.842412 -3.406340 8.383040 0.144690 -3.927050 2.984851 1.090550 1.152140 0.294970 -4.103890 -0.394810 -7.113890 11.193980 -3.295399 10.682972 -6.216418 -0.592013 11.483144 1.211790 -1.339987 -7.227447 -1.292606 4.760841 15.516137 -5.899760 1.189750 -3.225050 2.958252 -13.290609 -0.758310 34.063459 -17.750420 -11.826815 85.358881 20.739732 12.247306 -5.145753 3.442166 -0.389680 1.058080 -0.676620 0.396550 -4.725474 15.089882 3.681182 -29.182690 11.677496 -13.324443 -98.332721 -16.368445 11.782184 1.936481 -2.713438 -0.514060 0.682870 0.073820 0.025230 
0.845740 16.447890 -1.242630 -0.665155 0.642813 0.329864 -15.043175 12.626365 2.939649 -1.421308 -1.355759 -10.540793 -5.380910 3.735391 5.037811 -1.273580 4.063040 3.499821 0.621800 0.708880 0.172230 18.501836 -10.987632 2.846002 -0.890475 1.457114 -13.155017 5.795248 -3.417110 8.416476 0.140121 -3.885921 2.988387 1.081980 1.123280 0.294150 -4.117731 -0.363266 -7.071216 11.018336 -2.873134 10.623868 -6.086244 -0.378931 11.770302 1.164358 -1.398827 -7.174664 -1.370623 4.707517 15.569595 -5.797670 1.145570 -3.442060 2.788555 -13.154138 -0.775873 33.189929 -17.954829 -11.339025 80.956398 17.700308 8.729916 -5.116272 3.416157 -0.362470 1.032790 -0.658210 0.384580 -4.465832 15.028955 3.658212 -28.815692 11.947676 -12.948459 -92.514665 -12.524345 6.441528 1.912525 -2.676088 -0.508160 0.676500 0.075750 0.011670 
0.846440 16.464820 -1.276880 -0.495620 0.320466 -0.053000 -15.030159 12.692809 2.891373 -1.796668 -1.587052 -11.406324 -4.282305 3.766390 7.560128 -1.291282 3.981743 3.497592 0.616000 0.679830 0.185790 18.497324 -11.058725 2.855943 -0.978475 1.362445 -13.083671 5.486346 -3.442122 8.643748 0.132404 -3.855006 2.985597 1.048550 1.076970 0.295770 -4.127061 -0.349173 -7.038716 10.950293 -2.486277 11.081636 -6.209987 -0.021283 11.944538 1.305525 -1.550808 -7.061561 -1.572488 4.148127 15.911322 -5.870180 0.786490 -3.579870 2.719730 -12.669415 -0.954324 31.407149 -19.125841 -10.750951 77.092924 13.356077 4.845704 -5.061269 3.394232 -0.326550 0.991660 -0.634210 0.362950 -4.733630 14.729753 3.668148 -27.755591 12.122943 -12.400937 -86.196172 -8.198757 1.521867 1.911160 -2.635624 -0.495540 0.650490 0.083540 -0.004390 
0.846290 16.485520 -1.312640 -0.243191 0.121746 -0.650928 -15.024700 12.771549 2.848079 -2.193692 -1.903862 -12.427998 -3.206815 3.888888 11.093586 -1.296703 4.024394 3.455993 0.592820 0.636440 0.179120 18.484929 -11.128387 2.851350 -1.156978 1.246544 -12.922939 5.124239 -3.493808 9.061243 0.133206 -3.855124 2.971782 1.013560 1.066670 0.308060 -4.115555 -0.369717 -6.995009 10.661417 -2.025173 11.607036 -6.289337 0.402105 12.169749 1.476306 -1.648321 -6.757022 -1.711855 3.570846 16.315819 -5.975170 0.349390 -3.455460 2.758315 -11.912422 -1.363347 29.166879 -21.748201 -10.113287 73.302445 8.329648 0.986666 -5.032815 3.362885 -0.310250 0.976700 -0.628520 0.342270 -5.169764 14.096139 3.535605 -26.414038 12.936535 -11.603862 -79.239548 -3.504943 -2.678085 1.896605 -2.594297 -0.488050 0.636900 0.110230 -0.009800 
0.845990 16.499990 -1.340520 0.000903 -0.457516 -1.303986 -15.012411 12.819507 2.818717 -2.247256 -2.259908 -13.497590 -2.713736 4.251371 15.358155 -1.255439 4.241166 3.339293 0.569750 0.606820 0.151740 18.478985 -11.211466 2.841629 -1.349243 1.152323 -12.799965 4.790834 -3.559247 9.643896 0.141095 -3.876516 2.958642 0.985070 1.056830 0.319810 -4.117089 -0.315427 -6.959813 10.364989 -1.395145 12.079841 -6.263050 0.937179 12.235339 1.634423 -1.729633 -6.331303 -1.835187 3.207303 16.827497 -5.920510 0.064880 -3.110830 3.628469 -10.395194 -1.942750 25.317301 -24.815898 -8.769163 69.361922 2.337456 -2.860498 -5.005965 3.358916 -0.314340 0.968970 -0.631220 0.326950 -6.407367 12.843394 3.253564 -23.836995 15.036462 -10.509060 -72.526187 1.351938 -6.103549 1.879445 -2.572454 -0.469540 0.610200 0.135640 -0.006870 
0.851360 16.505930 -1.360010 -0.007976 -1.162053 -1.825730 -14.985951 12.819430 2.803712 -1.940542 -2.714570 -14.842294 -2.408231 4.805477 20.369446 -1.189885 4.667711 3.146513 0.569890 0.607300 0.138380 18.491633 -11.295289 2.837843 -1.406397 1.111753 -12.828806 4.622922 -3.634593 10.247232 0.146060 -3.903044 2.949693 0.981240 1.054860 0.327380 -4.163937 -0.170666 -6.940656 10.602728 -0.870235 12.444140 -6.336022 1.417793 11.808583 1.768207 -1.876664 -5.609664 -2.049105 3.037777 17.243634 -5.831440 -0.143950 -2.878930 4.425217 -8.300870 -2.773264 21.301669 -28.395064 -6.794593 64.963378 -4.419752 -6.264559 -4.975134 3.342666 -0.321370 0.968970 -0.634260 0.324440 -7.547995 11.056243 2.614647 -21.672517 18.392813 -8.916604 -65.006638 6.682834 -8.625519 1.840524 -2.536270 -0.455830 0.599490 0.145580 -0.002300 
0.858040 16.508110 -1.382320 -0.051102 -1.706494 -2.396549 -14.968258 12.784699 2.835405 -1.431876 -3.250175 -16.293395 -2.350806 5.613521 25.852709 -1.077048 5.337220 2.868271 0.567190 0.608430 0.131380 18.501730 -11.348860 2.819282 -1.593916 1.077245 -12.829694 4.777530 -3.783789 10.935402 0.145225 -3.944714 2.931115 0.979560 1.052070 0.323900 -4.196550 -0.035971 -6.958445 10.727555 -0.465441 12.993028 -6.302626 1.724974 11.037357 1.921673 -1.935228 -4.681829 -2.137081 2.879122 17.777347 -5.773240 -0.282820 -2.702830 5.013330 -5.971394 -3.806122 17.153735 -32.251389 -4.334019 60.187763 -11.668538 -8.956037 -4.933633 3.312856 -0.324850 0.963720 -0.634060 0.320360 -8.509998 8.990637 1.735364 -19.151849 22.529313 -6.839345 -57.492995 12.672103 -10.327279 1.789680 -2.478298 -0.450600 0.600110 0.151560 0.001440 
0.863820 16.502950 -1.396980 -0.163477 -2.146404 -2.501967 -14.963896 12.710725 2.909526 -0.826860 -3.826682 -17.983742 -2.314227 6.500446 31.054507 -0.949877 6.112735 2.555517 0.572840 0.609840 0.141420 18.510553 -11.348919 2.793590 -1.761254 1.116527 -13.110819 5.150551 -3.939850 11.426625 0.138423 -3.955159 2.922473 0.976470 1.039560 0.320850 -4.211256 0.066671 -6.998707 10.775109 -0.044166 13.008564 -6.210595 1.923747 9.847815 2.119302 -1.862111 -3.660538 -2.074343 2.850862 18.602452 -5.774180 -0.176810 -2.685260 5.852829 -3.448494 -4.835134 12.248292 -35.986475 -1.119274 54.730278 -19.371709 -10.801395 -4.873698 3.282948 -0.305840 0.951210 -0.621660 0.318230 -9.819306 6.572852 0.525441 -15.302857 27.259688 -3.956924 -49.709394 18.824473 -10.951101 1.719648 -2.414318 -0.451850 0.602590 0.149780 -0.005340 
0.870250 16.494860 -1.406320 -0.123292 -2.563703 -2.185480 -14.982218 12.623126 3.012858 -0.628808 -4.360009 -19.632114 -1.962563 7.192501 35.432224 -0.811252 6.797455 2.280693 0.578540 0.605780 0.168820 18.506927 -11.306779 2.752346 -2.027626 1.227119 -13.763608 5.519044 -4.062576 11.860913 0.136689 -3.921693 2.923792 0.960720 1.002970 0.318500 -4.178398 0.111111 -7.031272 10.455940 0.562017 12.334247 -5.966589 2.210849 8.710883 2.411795 -1.628516 -2.803057 -1.817417 2.635127 19.789331 -5.995570 0.063200 -2.605210 6.438430 -1.626721 -5.649774 7.339926 -38.958406 2.297513 48.325549 -27.504929 -11.656405 -4.782214 3.272486 -0.284090 0.928120 -0.598310 0.307560 -11.052254 4.711009 -0.666118 -10.675115 31.010904 -0.388130 -41.115291 25.614122 -10.464632 1.638497 -2.348823 -0.443400 0.584790 0.137450 -0.019440 
